<svg width="32" height="32" viewBox="0 0 32 32" fill="none" xmlns="http://www.w3.org/2000/svg">
<path d="M7.005 16.5653H8.19014V17.7414H7.005V16.5653ZM8.40177 16.5653H9.5869V17.7414H8.40177V16.5653ZM0 17.9514H1.18514V19.1274H0V17.9514ZM1.39677 17.9514H2.5819V19.1274H1.39677V17.9514ZM7.005 17.9514H8.19014V19.1274H7.005V17.9514ZM8.40177 17.9514H9.5869V19.1274H8.40177V17.9514ZM1.39677 19.3375H2.5819V20.5135H1.39677V19.3375ZM2.79354 19.3375H3.97867V20.5135H2.79354V19.3375ZM4.1903 19.3375H5.37544V20.5135H4.1903V19.3375ZM5.60823 19.3375H6.79337V20.5135H5.60823V19.3375ZM7.005 19.3375H8.19014V20.5135H7.005V19.3375ZM1.39677 11H2.5819V12.1761H1.39677V11ZM2.79354 11H3.97867V12.1761H2.79354V11ZM4.1903 11H5.37544V12.1761H4.1903V11ZM5.60823 11H6.79337V12.1761H5.60823V11ZM7.005 11H8.19014V12.1761H7.005V11ZM0 12.3861H1.18514V13.5621H0V12.3861ZM1.39677 12.3861H2.5819V13.5621H1.39677V12.3861ZM7.005 12.3861H8.19014V13.5621H7.005V12.3861ZM8.40177 12.3861H9.5869V13.5621H8.40177V12.3861ZM0 13.7721H1.18514V14.9482H0V13.7721ZM1.39677 13.7721H2.5819V14.9482H1.39677V13.7721ZM1.39677 15.1582H2.5819V16.3343H1.39677V15.1582ZM2.79354 15.1582H3.97867V16.3343H2.79354V15.1582ZM4.1903 15.1582H5.37544V16.3343H4.1903V15.1582ZM5.60823 15.1582H6.79337V16.3343H5.60823V15.1582ZM7.005 15.1582H8.19014V16.3343H7.005V15.1582Z" fill="black"/>
<path d="M16.9206 16.5653H18.1057V17.7414H16.9206V16.5653ZM18.3174 16.5653H19.5025V17.7414H18.3174V16.5653ZM11.3124 17.9514H12.4975V19.1274H11.3124V17.9514ZM12.7091 17.9514H13.8943V19.1274H12.7091V17.9514ZM16.9206 17.9514H18.1057V19.1274H16.9206V17.9514ZM18.3174 17.9514H19.5025V19.1274H18.3174V17.9514ZM12.7091 19.3375H13.8943V20.5135H12.7091V19.3375ZM14.1059 19.3375H15.291V20.5135H14.1059V19.3375ZM15.5027 19.3375H16.6878V20.5135H15.5027V19.3375ZM16.9206 19.3375H18.1057V20.5135H16.9206V19.3375ZM14.1059 11H15.291V12.1761H14.1059V11ZM15.5027 11H16.6878V12.1761H15.5027V11ZM16.9206 11H18.1057V12.1761H16.9206V11ZM18.3174 11H19.5025V12.1761H18.3174V11ZM19.7141 11H20.8993V12.1761H19.7141V11ZM16.9206 12.3861H18.1057V13.5621H16.9206V12.3861ZM18.3174 12.3861H19.5025V13.5621H18.3174V12.3861ZM16.9206 13.7721H18.1057V14.9482H16.9206V13.7721ZM18.3174 13.7721H19.5025V14.9482H18.3174V13.7721ZM16.9206 15.1582H18.1057V16.3343H16.9206V15.1582ZM18.3174 15.1582H19.5025V16.3343H18.3174V15.1582Z" fill="black"/>
<path d="M22.6247 16.5653H23.8099V17.7414H22.6247V16.5653ZM24.0215 16.5653H25.2066V17.7414H24.0215V16.5653ZM22.6247 17.9514H23.8099V19.1274H22.6247V17.9514ZM24.0215 17.9514H25.2066V19.1274H24.0215V17.9514ZM22.6247 19.3375H23.8099V20.5135H22.6247V19.3375ZM24.0215 19.3375H25.2066V20.5135H24.0215V19.3375ZM22.6247 13.7721H23.8099V14.9482H22.6247V13.7721ZM24.0215 13.7721H25.2066V14.9482H24.0215V13.7721ZM26.815 13.7721H28.0002V14.9482H26.815V13.7721ZM28.233 13.7721H29.4181V14.9482H28.233V13.7721ZM22.6247 15.1582H23.8099V16.3343H22.6247V15.1582ZM24.0215 15.1582H25.2066V16.3343H24.0215V15.1582ZM25.4183 15.1582H26.6034V16.3343H25.4183V15.1582Z" fill="black"/>
<path d="M29.4181 17.7414H30.6032V18.9174H29.4181V17.7414ZM30.8149 17.7414H32V18.9174H30.8149V17.7414ZM29.4181 19.1274H30.6032V20.3035H29.4181V19.1274ZM30.8149 19.1274H32V20.3035H30.8149V19.1274Z" fill="black"/>
</svg>
