<svg width="40" height="40" viewBox="0 0 40 40" fill="none" xmlns="http://www.w3.org/2000/svg">
<path d="M20.2063 9.46863C14.5282 9.46863 9.92871 14.0364 9.92871 19.6827C9.92871 21.9032 10.6583 23.9968 11.8954 25.678L10.5948 29.4845L14.56 28.2157C16.1777 29.2942 18.1444 29.8969 20.238 29.8969C25.916 29.8969 30.5473 25.3291 30.5473 19.6827C30.5155 14.0364 25.8843 9.46863 20.2063 9.46863ZM26.2332 23.9016C25.9795 24.5995 24.7424 25.2656 24.2031 25.3291C23.6638 25.3925 23.6638 25.7731 20.5869 24.5995C17.5417 23.3941 15.6067 20.3172 15.4481 20.0951C15.2895 19.9048 14.211 18.4774 14.211 17.0182C14.211 15.559 14.9723 14.8295 15.2578 14.544C15.5433 14.2585 15.8605 14.1633 16.0508 14.1633C16.2412 14.1633 16.4632 14.195 16.6218 14.195C16.8121 14.195 17.0342 14.0999 17.2879 14.7026C17.5417 15.3053 18.1444 16.7644 18.2079 16.923C18.2713 17.0816 18.3347 17.2402 18.2396 17.4306C18.1444 17.6209 18.081 17.7478 17.9541 17.9381C17.7955 18.0967 17.6369 18.3187 17.51 18.4456C17.3514 18.6042 17.1928 18.7628 17.3831 19.0483C17.5734 19.3338 18.1761 20.3172 19.0643 21.1102C20.2063 22.1253 21.1896 22.4425 21.4751 22.6011C21.7606 22.7597 21.9509 22.7279 22.1095 22.5376C22.2998 22.3473 22.8708 21.6812 23.0611 21.3639C23.2515 21.0785 23.4735 21.1102 23.7273 21.2053C24.0128 21.3005 25.4719 22.0301 25.7891 22.1887C26.0746 22.3473 26.2967 22.4107 26.3601 22.5376C26.4553 22.6011 26.4553 23.2038 26.2332 23.9016Z" fill="url(#paint0_linear_185_137)"/>
<path d="M29.9445 0.0158691H10.0238C4.50436 0.0158691 0 4.52023 0 10.0397V29.9921C0 35.4798 4.50436 39.9842 10.0238 39.9842H29.9762C35.4956 39.9842 40 35.4798 40 29.9604V10.0397C39.9683 4.52023 35.4639 0.0158691 29.9445 0.0158691ZM20.2062 31.8319C18.0492 31.8319 16.0508 31.2926 14.2744 30.3093L7.48612 32.4663L9.70658 25.9635C8.59635 24.1237 7.96193 21.9667 7.96193 19.6828C7.96193 12.958 13.4496 7.53371 20.2062 7.53371C26.9627 7.53371 32.4504 12.958 32.4504 19.6828C32.4504 26.4076 26.9627 31.8319 20.2062 31.8319Z" fill="url(#paint1_linear_185_137)"/>
<defs>
<linearGradient id="paint0_linear_185_137" x1="20.238" y1="9.46863" x2="20.238" y2="29.8969" gradientUnits="userSpaceOnUse">
<stop stop-color="#2ABDBB"/>
<stop offset="1" stop-color="#1E9391"/>
</linearGradient>
<linearGradient id="paint1_linear_185_137" x1="20" y1="0.0158691" x2="20" y2="39.9841" gradientUnits="userSpaceOnUse">
<stop stop-color="#2ABDBB"/>
<stop offset="1" stop-color="#1E9391"/>
</linearGradient>
</defs>
</svg>
